<svg xmlns="http://www.w3.org/2000/svg" viewBox="0 0 64 64" role="img" aria-label="String art icon">
  <title>string</title>
  <defs>
    <radialGradient id="board" cx="44%" cy="40%" r="70%">
      <stop offset="0%" stop-color="#fbf7ee"/>
      <stop offset="100%" stop-color="#eee6d6"/>
    </radialGradient>
    <clipPath id="disc"><circle cx="32.0" cy="32.0" r="28.0"/></clipPath>
  </defs>
  <circle cx="32.0" cy="32.0" r="28.0" fill="url(#board)"/>
  <g clip-path="url(#disc)" stroke="#1a1815" stroke-linecap="round" stroke-width="0.45" stroke-opacity="0.55" fill="none">
    <line x1="32.00" y1="4.00" x2="53.45" y2="50.00"/>
    <line x1="53.45" y1="50.00" x2="4.43" y2="36.86"/>
    <line x1="4.43" y1="36.86" x2="46.00" y2="7.75"/>
    <line x1="46.00" y1="7.75" x2="41.58" y2="58.31"/>
    <line x1="41.58" y1="58.31" x2="5.69" y2="22.42"/>
    <line x1="5.69" y1="22.42" x2="56.25" y2="18.00"/>
    <line x1="56.25" y1="18.00" x2="27.14" y2="59.57"/>
    <line x1="27.14" y1="59.57" x2="14.00" y2="10.55"/>
    <line x1="14.00" y1="10.55" x2="60.00" y2="32.00"/>
    <line x1="60.00" y1="32.00" x2="14.00" y2="53.45"/>
    <line x1="14.00" y1="53.45" x2="27.14" y2="4.43"/>
    <line x1="27.14" y1="4.43" x2="56.25" y2="46.00"/>
    <line x1="56.25" y1="46.00" x2="5.69" y2="41.58"/>
    <line x1="5.69" y1="41.58" x2="41.58" y2="5.69"/>
    <line x1="41.58" y1="5.69" x2="46.00" y2="56.25"/>
    <line x1="46.00" y1="56.25" x2="4.43" y2="27.14"/>
    <line x1="4.43" y1="27.14" x2="53.45" y2="14.00"/>
    <line x1="53.45" y1="14.00" x2="32.00" y2="60.00"/>
    <line x1="32.00" y1="60.00" x2="10.55" y2="14.00"/>
    <line x1="10.55" y1="14.00" x2="59.57" y2="27.14"/>
    <line x1="59.57" y1="27.14" x2="18.00" y2="56.25"/>
    <line x1="18.00" y1="56.25" x2="22.42" y2="5.69"/>
    <line x1="22.42" y1="5.69" x2="58.31" y2="41.58"/>
    <line x1="58.31" y1="41.58" x2="7.75" y2="46.00"/>
    <line x1="7.75" y1="46.00" x2="36.86" y2="4.43"/>
    <line x1="36.86" y1="4.43" x2="50.00" y2="53.45"/>
    <line x1="50.00" y1="53.45" x2="4.00" y2="32.00"/>
    <line x1="4.00" y1="32.00" x2="50.00" y2="10.55"/>
    <line x1="50.00" y1="10.55" x2="36.86" y2="59.57"/>
    <line x1="36.86" y1="59.57" x2="7.75" y2="18.00"/>
    <line x1="7.75" y1="18.00" x2="58.31" y2="22.42"/>
    <line x1="58.31" y1="22.42" x2="22.42" y2="58.31"/>
    <line x1="22.42" y1="58.31" x2="18.00" y2="7.75"/>
    <line x1="18.00" y1="7.75" x2="59.57" y2="36.86"/>
    <line x1="59.57" y1="36.86" x2="10.55" y2="50.00"/>
    <line x1="10.55" y1="50.00" x2="32.00" y2="4.00"/>
    <line x1="56.25" y1="46.00" x2="10.55" y2="50.00"/>
    <line x1="10.55" y1="50.00" x2="22.42" y2="5.69"/>
    <line x1="22.42" y1="5.69" x2="60.00" y2="32.00"/>
    <line x1="60.00" y1="32.00" x2="22.42" y2="58.31"/>
    <line x1="22.42" y1="58.31" x2="10.55" y2="14.00"/>
    <line x1="10.55" y1="14.00" x2="56.25" y2="18.00"/>
    <line x1="56.25" y1="18.00" x2="36.86" y2="59.57"/>
    <line x1="36.86" y1="59.57" x2="4.43" y2="27.14"/>
    <line x1="4.43" y1="27.14" x2="46.00" y2="7.75"/>
    <line x1="46.00" y1="7.75" x2="50.00" y2="53.45"/>
    <line x1="50.00" y1="53.45" x2="5.69" y2="41.58"/>
    <line x1="5.69" y1="41.58" x2="32.00" y2="4.00"/>
    <line x1="32.00" y1="4.00" x2="58.31" y2="41.58"/>
    <line x1="58.31" y1="41.58" x2="14.00" y2="53.45"/>
    <line x1="14.00" y1="53.45" x2="18.00" y2="7.75"/>
    <line x1="18.00" y1="7.75" x2="59.57" y2="27.14"/>
    <line x1="59.57" y1="27.14" x2="27.14" y2="59.57"/>
    <line x1="27.14" y1="59.57" x2="7.75" y2="18.00"/>
    <line x1="7.75" y1="18.00" x2="53.45" y2="14.00"/>
    <line x1="53.45" y1="14.00" x2="41.58" y2="58.31"/>
    <line x1="41.58" y1="58.31" x2="4.00" y2="32.00"/>
    <line x1="4.00" y1="32.00" x2="41.58" y2="5.69"/>
    <line x1="41.58" y1="5.69" x2="53.45" y2="50.00"/>
    <line x1="53.45" y1="50.00" x2="7.75" y2="46.00"/>
    <line x1="7.75" y1="46.00" x2="27.14" y2="4.43"/>
    <line x1="27.14" y1="4.43" x2="59.57" y2="36.86"/>
    <line x1="59.57" y1="36.86" x2="18.00" y2="56.25"/>
    <line x1="18.00" y1="56.25" x2="14.00" y2="10.55"/>
    <line x1="14.00" y1="10.55" x2="58.31" y2="22.42"/>
    <line x1="58.31" y1="22.42" x2="32.00" y2="60.00"/>
    <line x1="32.00" y1="60.00" x2="5.69" y2="22.42"/>
    <line x1="5.69" y1="22.42" x2="50.00" y2="10.55"/>
    <line x1="50.00" y1="10.55" x2="46.00" y2="56.25"/>
    <line x1="46.00" y1="56.25" x2="4.43" y2="36.86"/>
    <line x1="4.43" y1="36.86" x2="36.86" y2="4.43"/>
    <line x1="36.86" y1="4.43" x2="56.25" y2="46.00"/>
    <line x1="7.75" y1="46.00" x2="53.45" y2="14.00"/>
    <line x1="53.45" y1="14.00" x2="14.00" y2="53.45"/>
    <line x1="14.00" y1="53.45" x2="46.00" y2="7.75"/>
    <line x1="46.00" y1="7.75" x2="22.42" y2="58.31"/>
    <line x1="22.42" y1="58.31" x2="36.86" y2="4.43"/>
    <line x1="36.86" y1="4.43" x2="32.00" y2="60.00"/>
    <line x1="32.00" y1="60.00" x2="27.14" y2="4.43"/>
    <line x1="27.14" y1="4.43" x2="41.58" y2="58.31"/>
    <line x1="41.58" y1="58.31" x2="18.00" y2="7.75"/>
    <line x1="18.00" y1="7.75" x2="50.00" y2="53.45"/>
    <line x1="50.00" y1="53.45" x2="10.55" y2="14.00"/>
    <line x1="10.55" y1="14.00" x2="56.25" y2="46.00"/>
    <line x1="56.25" y1="46.00" x2="5.69" y2="22.42"/>
    <line x1="5.69" y1="22.42" x2="59.57" y2="36.86"/>
    <line x1="59.57" y1="36.86" x2="4.00" y2="32.00"/>
    <line x1="4.00" y1="32.00" x2="59.57" y2="27.14"/>
    <line x1="59.57" y1="27.14" x2="5.69" y2="41.58"/>
    <line x1="5.69" y1="41.58" x2="56.25" y2="18.00"/>
    <line x1="56.25" y1="18.00" x2="10.55" y2="50.00"/>
    <line x1="10.55" y1="50.00" x2="50.00" y2="10.55"/>
    <line x1="50.00" y1="10.55" x2="18.00" y2="56.25"/>
    <line x1="18.00" y1="56.25" x2="41.58" y2="5.69"/>
    <line x1="41.58" y1="5.69" x2="27.14" y2="59.57"/>
    <line x1="27.14" y1="59.57" x2="32.00" y2="4.00"/>
    <line x1="32.00" y1="4.00" x2="36.86" y2="59.57"/>
    <line x1="36.86" y1="59.57" x2="22.42" y2="5.69"/>
    <line x1="22.42" y1="5.69" x2="46.00" y2="56.25"/>
    <line x1="46.00" y1="56.25" x2="14.00" y2="10.55"/>
    <line x1="14.00" y1="10.55" x2="53.45" y2="50.00"/>
    <line x1="53.45" y1="50.00" x2="7.75" y2="18.00"/>
    <line x1="7.75" y1="18.00" x2="58.31" y2="41.58"/>
    <line x1="58.31" y1="41.58" x2="4.43" y2="27.14"/>
    <line x1="4.43" y1="27.14" x2="60.00" y2="32.00"/>
    <line x1="60.00" y1="32.00" x2="4.43" y2="36.86"/>
    <line x1="4.43" y1="36.86" x2="58.31" y2="22.42"/>
    <line x1="58.31" y1="22.42" x2="7.75" y2="46.00"/>
  </g>
  <g fill="#1a1815">
    <circle cx="32.00" cy="4.00" r="0.55"/>
    <circle cx="36.86" cy="4.43" r="0.55"/>
    <circle cx="41.58" cy="5.69" r="0.55"/>
    <circle cx="46.00" cy="7.75" r="0.55"/>
    <circle cx="50.00" cy="10.55" r="0.55"/>
    <circle cx="53.45" cy="14.00" r="0.55"/>
    <circle cx="56.25" cy="18.00" r="0.55"/>
    <circle cx="58.31" cy="22.42" r="0.55"/>
    <circle cx="59.57" cy="27.14" r="0.55"/>
    <circle cx="60.00" cy="32.00" r="0.55"/>
    <circle cx="59.57" cy="36.86" r="0.55"/>
    <circle cx="58.31" cy="41.58" r="0.55"/>
    <circle cx="56.25" cy="46.00" r="0.55"/>
    <circle cx="53.45" cy="50.00" r="0.55"/>
    <circle cx="50.00" cy="53.45" r="0.55"/>
    <circle cx="46.00" cy="56.25" r="0.55"/>
    <circle cx="41.58" cy="58.31" r="0.55"/>
    <circle cx="36.86" cy="59.57" r="0.55"/>
    <circle cx="32.00" cy="60.00" r="0.55"/>
    <circle cx="27.14" cy="59.57" r="0.55"/>
    <circle cx="22.42" cy="58.31" r="0.55"/>
    <circle cx="18.00" cy="56.25" r="0.55"/>
    <circle cx="14.00" cy="53.45" r="0.55"/>
    <circle cx="10.55" cy="50.00" r="0.55"/>
    <circle cx="7.75" cy="46.00" r="0.55"/>
    <circle cx="5.69" cy="41.58" r="0.55"/>
    <circle cx="4.43" cy="36.86" r="0.55"/>
    <circle cx="4.00" cy="32.00" r="0.55"/>
    <circle cx="4.43" cy="27.14" r="0.55"/>
    <circle cx="5.69" cy="22.42" r="0.55"/>
    <circle cx="7.75" cy="18.00" r="0.55"/>
    <circle cx="10.55" cy="14.00" r="0.55"/>
    <circle cx="14.00" cy="10.55" r="0.55"/>
    <circle cx="18.00" cy="7.75" r="0.55"/>
    <circle cx="22.42" cy="5.69" r="0.55"/>
    <circle cx="27.14" cy="4.43" r="0.55"/>
  </g>
  <circle cx="32.0" cy="32.0" r="28.0" fill="none" stroke="#1a1815" stroke-width="1"/>
</svg>
